<svg width="32" height="32" viewBox="0 0 32 32" fill="none" xmlns="http://www.w3.org/2000/svg">
  <circle cx="16" cy="16" r="16" fill="#000000" />
  <circle cx="16" cy="16" r="14" fill="#000000" />
  <circle cx="16" cy="16" r="12" fill="#00ff4c" fill-opacity="0.2" />
  <path d="M24.178 12c-1.148 0-2.094.334-2.842 1.004-.748.669-1.377 1.566-1.888 2.691a.249.249 0 01-.448 0c-.51-1.125-1.14-2.022-1.887-2.691C16.365 12.334 15.42 12 14.272 12c-1.326 0-2.407.423-3.243 1.27C10.193 14.115 9.775 15.223 9.775 16.6c0 1.376.418 2.484 1.254 3.331.836.846 1.917 1.269 3.243 1.269 1.148 0 2.094-.334 2.841-1.004.748-.669 1.377-1.566 1.887-2.691a.249.249 0 01.448 0c.511 1.125 1.14 2.022 1.888 2.691.748.67 1.694 1.004 2.842 1.004 1.326 0 2.407-.423 3.243-1.27.836-.846 1.254-1.954 1.254-3.33 0-1.377-.418-2.485-1.254-3.331C26.585 12.423 25.504 12 24.178 12z" stroke="white" stroke-width="1.5" />
</svg>
